<svg width="1000" height="574" viewBox="0 0 1000 574" fill="none" xmlns="http://www.w3.org/2000/svg">
<path d="M179.738 313.102C103.97 313.102 54.7029 263.496 54.7029 186.708C54.7029 109.92 103.97 63.0317 179.738 63.0317C183.815 63.0317 187.553 63.3715 189.931 63.7112C192.31 64.051 193.669 66.0897 193.669 68.1283V101.765C193.669 104.144 191.97 105.503 189.252 105.163C186.873 104.823 183.136 104.823 179.738 104.823C129.792 104.823 100.232 135.403 100.232 186.708C100.232 238.013 131.831 271.31 179.738 271.31C198.425 271.31 214.055 266.214 226.626 257.38C229.344 255.681 231.043 255.681 233.422 258.059L257.885 283.542C259.924 285.921 259.924 288.299 257.206 290.338C236.819 304.948 210.317 313.102 179.738 313.102ZM214.055 241.751C210.997 241.751 209.298 240.052 209.298 236.994V69.1476C209.298 66.0897 210.997 64.3908 214.055 64.3908H250.07C253.128 64.3908 254.827 66.0897 254.827 69.1476V140.159H301.715V69.1476C301.715 66.0897 303.414 64.3908 306.472 64.3908H342.488C345.546 64.3908 347.244 66.0897 347.244 69.1476V304.268C347.244 307.326 345.546 309.025 342.488 309.025H306.472C303.414 309.025 301.715 307.326 301.715 304.268V182.631H254.827V236.994C254.827 240.052 253.128 241.751 250.07 241.751H214.055Z" fill="white"/>
<path d="M367.349 309.025C364.291 309.025 362.592 307.326 362.592 304.268V126.229C362.592 86.1361 388.415 60.3136 430.206 60.3136H432.925C474.716 60.3136 500.539 86.1361 500.539 126.229V304.268C500.539 307.326 498.84 309.025 495.782 309.025H459.766C456.708 309.025 455.01 307.326 455.01 304.268V211.851H408.121V304.268C408.121 307.326 406.423 309.025 403.365 309.025H367.349ZM408.121 148.654C408.121 163.604 416.276 171.758 431.226 171.758H431.905C446.855 171.758 455.01 163.604 455.01 148.654V124.19C455.01 110.26 445.836 101.086 431.905 101.086H431.226C417.295 101.086 408.121 110.26 408.121 124.19V148.654Z" fill="white"/>
<path d="M561.416 304.268C561.416 307.326 559.717 309.025 556.659 309.025H520.643C517.585 309.025 515.886 307.326 515.886 304.268V69.1476C515.886 66.0897 517.585 64.3909 520.643 64.3909H588.937C632.427 64.3909 661.308 92.9315 661.308 137.441V138.8C661.308 183.31 632.427 211.851 588.937 211.851H561.416V304.268ZM588.597 169.38C605.586 169.38 617.138 157.488 617.138 138.461V137.781C617.138 118.754 605.586 106.862 588.597 106.862H587.238C570.25 106.862 558.358 118.754 558.358 137.781V138.461C558.358 157.488 570.25 169.38 587.238 169.38H588.597Z" fill="white"/>
<path d="M676.586 69.1476C676.586 66.0897 678.285 64.3908 681.343 64.3908H778.517C781.575 64.3908 783.274 66.0897 783.274 69.1476V102.105C783.274 105.163 781.575 106.862 778.517 106.862H722.115V140.159H764.926C767.984 140.159 769.683 141.858 769.683 144.916V177.874C769.683 180.932 767.984 182.631 764.926 182.631H722.115V266.554H778.517C781.575 266.554 783.274 268.253 783.274 271.31V304.268C783.274 307.326 781.575 309.025 778.517 309.025H681.343C678.285 309.025 676.586 307.326 676.586 304.268V69.1476ZM729.93 2.89254C731.968 -0.505149 735.026 -0.844919 737.744 1.53349L752.015 14.105C754.393 16.1435 753.714 19.2015 750.995 21.9196L714.3 52.4989C712.262 53.858 710.563 53.858 708.184 51.8193L704.447 48.4217C702.408 46.383 702.069 44.6842 703.767 42.6456L729.93 2.89254Z" fill="white"/>
<path d="M866.047 312.083C824.255 312.083 798.433 288.299 798.433 246.847V69.1476C798.433 66.0897 800.131 64.3909 803.189 64.3909H839.205C842.263 64.3909 843.962 66.0897 843.962 69.1476V246.847C843.962 263.156 853.135 271.311 867.066 271.311H867.745C881.676 271.311 890.85 263.156 890.85 246.847V69.1476C890.85 66.0897 892.549 64.3909 895.607 64.3909H931.622C934.68 64.3909 936.379 66.0897 936.379 69.1476V246.847C936.379 288.299 910.556 312.083 868.765 312.083H866.047Z" fill="white"/>
<path d="M76.4481 573.264C30.5793 573.264 0 543.025 0 497.835C0 465.557 13.251 444.491 38.0542 427.163C28.5406 412.213 21.7453 396.244 21.7453 377.217C21.7453 345.958 44.1701 320.475 78.4868 320.475C113.483 320.475 135.908 344.599 135.908 375.518C135.908 403.039 121.298 422.067 95.4753 439.735L118.919 475.071L125.375 451.287C126.055 448.569 127.753 447.21 130.472 447.21H163.429C166.827 447.21 168.526 449.588 167.506 452.646L161.391 474.731C156.974 491.04 152.557 504.97 147.46 517.202L178.719 563.411C180.418 566.129 179.398 569.187 175.661 569.187H138.626C136.248 569.187 134.209 568.507 132.85 566.129L125.035 554.237C112.464 567.148 97.1741 573.264 76.4481 573.264ZM46.2087 495.457C46.2087 516.183 58.7801 528.414 76.4481 528.754C87.3208 528.754 95.1355 525.696 101.251 518.901L62.5176 461.48C51.9847 470.654 46.2087 480.847 46.2087 495.457ZM61.4983 380.615C61.4983 390.808 66.2551 398.622 73.0504 407.456C88.6798 399.302 95.4753 389.788 95.4753 379.595C95.4753 369.742 88.6798 362.267 78.4868 362.267C68.2937 362.267 61.4983 369.742 61.4983 380.615Z" fill="white"/>
<path d="M302.395 570.546C226.626 570.546 177.36 523.658 177.36 446.87C177.36 370.082 226.626 323.194 302.395 323.194C306.472 323.194 310.21 323.533 312.588 323.873C314.966 324.213 316.325 326.252 316.325 328.29V361.927C316.325 364.306 314.627 365.665 311.908 365.325C309.53 364.985 305.793 364.985 302.395 364.985C252.449 364.985 222.889 395.565 222.889 446.87C222.889 498.175 252.449 528.754 302.395 528.754C305.793 528.754 309.53 528.754 311.908 528.414C314.627 528.075 316.325 529.434 316.325 531.812V565.449C316.325 568.168 314.627 569.866 311.569 570.206C309.53 570.546 305.793 570.546 302.395 570.546Z" fill="white"/>
<path d="M336.009 569.187C332.951 569.187 331.252 567.488 331.252 564.43V386.391C331.252 346.298 357.075 320.475 398.866 320.475H401.584C443.376 320.475 469.198 346.298 469.198 386.391V564.43C469.198 567.488 467.5 569.187 464.442 569.187H428.426C425.368 569.187 423.669 567.488 423.669 564.43V472.013H376.781V564.43C376.781 567.488 375.082 569.187 372.024 569.187H336.009ZM376.781 408.816C376.781 423.765 384.936 431.92 399.886 431.92H400.565C415.515 431.92 423.669 423.765 423.669 408.816V384.352C423.669 370.422 414.496 361.248 400.565 361.248H399.886C385.955 361.248 376.781 370.422 376.781 384.352V408.816Z" fill="white"/>
<path d="M489.303 569.187C486.245 569.187 484.546 567.488 484.546 564.43V329.309C484.546 326.252 486.245 324.553 489.303 324.553H523.96C528.037 324.553 531.434 325.912 534.153 328.97L576.964 375.858V329.309C576.964 326.252 578.662 324.553 581.72 324.553H617.736C620.794 324.553 622.493 326.252 622.493 329.309V564.43C622.493 567.488 620.794 569.187 617.736 569.187H581.72C578.662 569.187 576.964 567.488 576.964 564.43V436.337L530.075 387.41V564.43C530.075 567.488 528.377 569.187 525.319 569.187H489.303Z" fill="white"/>
<path d="M636.844 329.309C636.844 326.252 638.543 324.553 641.601 324.553H738.775C741.833 324.553 743.532 326.252 743.532 329.309V362.267C743.532 365.325 741.833 367.024 738.775 367.024H682.374V400.321H725.185C728.242 400.321 729.941 402.02 729.941 405.078V438.036C729.941 441.094 728.242 442.793 725.185 442.793H682.374V526.716H772.462C775.519 526.716 777.218 528.414 777.218 531.472V564.43C777.218 567.488 775.519 569.187 772.462 569.187H641.601C638.543 569.187 636.844 567.488 636.844 564.43V329.309Z" fill="white"/>
<path d="M860.073 569.187C857.015 569.187 855.316 567.488 855.316 564.43V450.267C855.316 410.175 881.139 384.352 922.93 384.352H925.649C967.44 384.352 993.263 410.175 993.263 450.267V564.43C993.263 567.488 991.564 569.187 988.506 569.187H952.49C949.432 569.187 947.734 567.488 947.734 564.43V519.58H900.845V564.43C900.845 567.488 899.147 569.187 896.089 569.187H860.073ZM798.177 569.187C795.119 569.187 793.42 567.488 793.42 564.43V367.024H762.501C759.443 367.024 757.744 365.325 757.744 362.267V329.309C757.744 326.252 759.443 324.553 762.501 324.553H995.243C998.301 324.553 1000 326.252 1000 329.309V362.267C1000 365.325 998.301 367.024 995.243 367.024H838.609V564.43C838.609 567.488 836.911 569.187 833.853 569.187H798.177ZM900.845 459.101C900.845 474.051 909 482.206 923.95 482.206H924.629C939.579 482.206 947.734 474.051 947.734 459.101V448.229C947.734 434.298 938.56 425.124 924.629 425.124H923.95C910.019 425.124 900.845 434.298 900.845 448.229V459.101Z" fill="white"/>
</svg>
