<svg width="1906" height="314" viewBox="0 0 1906 314" fill="none" xmlns="http://www.w3.org/2000/svg">
<path d="M203.183 283.542C205.221 285.92 205.221 288.299 202.503 290.338C182.117 304.948 155.614 313.103 125.035 313.103C49.2666 313.102 0.00012207 263.496 0 186.708C0 109.92 49.2666 63.0313 125.035 63.0312C129.112 63.0312 132.85 63.3712 135.229 63.7109C137.607 64.0507 138.966 66.0894 138.966 68.1279V101.766C138.966 104.144 137.267 105.503 134.549 105.163C132.17 104.823 128.433 104.823 125.035 104.823C75.0891 104.823 45.5293 135.403 45.5293 186.708C45.5294 238.013 77.1277 271.31 125.035 271.311C143.722 271.311 159.352 266.214 171.924 257.38C174.642 255.681 176.34 255.681 178.719 258.06L203.183 283.542ZM292.542 304.269C292.542 307.326 290.843 309.024 287.785 309.024H251.77C248.712 309.024 247.013 307.326 247.013 304.269V182.631H200.124V236.994C200.124 240.052 198.425 241.751 195.367 241.751H159.352C156.294 241.751 154.595 240.052 154.595 236.994V69.1474C154.595 66.0897 156.294 64.3907 159.352 64.3906H195.367C198.425 64.3906 200.124 66.0896 200.124 69.1474V140.159H247.013V69.1474C247.013 66.0896 248.712 64.3906 251.77 64.3906H287.785C290.843 64.3907 292.542 66.0897 292.542 69.1474V304.269ZM445.836 304.269C445.836 307.326 444.137 309.025 441.079 309.025H405.063C402.006 309.025 400.307 307.326 400.307 304.269V211.851H353.419V304.269C353.419 307.326 351.72 309.025 348.662 309.025H312.646C309.589 309.025 307.89 307.326 307.89 304.269V126.228C307.89 86.1359 333.712 60.3134 375.504 60.3134H378.222C420.013 60.3134 445.836 86.1359 445.836 126.228V304.269ZM400.307 124.19C400.307 110.26 391.133 101.086 377.202 101.086H376.522C362.592 101.086 353.419 110.26 353.419 124.19V148.653C353.419 163.603 361.573 171.758 376.522 171.758H377.202C392.152 171.758 400.307 163.603 400.307 148.653V124.19ZM606.604 138.801C606.604 183.31 577.725 211.85 534.234 211.851H506.713V304.269C506.713 307.326 505.014 309.025 501.956 309.025H465.94C462.883 309.025 461.184 307.326 461.184 304.269V69.1474C461.184 66.0896 462.883 64.3906 465.94 64.3906H534.234C577.725 64.3907 606.604 92.9317 606.604 137.441V138.801ZM562.435 137.781C562.435 118.754 550.883 106.862 533.895 106.862H532.535C515.547 106.862 503.655 118.754 503.655 137.781V138.461C503.655 157.488 515.547 169.38 532.535 169.38H533.895C550.883 169.38 562.434 157.488 562.435 138.461V137.781ZM728.57 102.105C728.57 105.163 726.871 106.862 723.813 106.862H667.412V140.159H710.223C713.281 140.159 714.979 141.858 714.979 144.916V177.874C714.979 180.932 713.281 182.631 710.223 182.631H667.412V266.554H723.813C726.871 266.554 728.57 268.253 728.57 271.311V304.269C728.57 307.326 726.871 309.025 723.813 309.025H626.64C623.582 309.025 621.883 307.326 621.883 304.269V69.1474C621.883 66.0896 623.582 64.3906 626.64 64.3906H723.813C726.871 64.3906 728.57 66.0896 728.57 69.1474V102.105ZM697.312 14.1045C699.69 16.143 699.01 19.2018 696.292 21.9199L659.598 52.499C657.559 53.8581 655.86 53.8579 653.481 51.8193L649.744 48.4218C647.706 46.3832 647.366 44.6841 649.064 42.6455L675.227 2.89255C677.265 -0.505004 680.323 -0.84491 683.041 1.53317L697.312 14.1045ZM881.676 246.847C881.676 288.299 855.853 312.083 814.062 312.083H811.344C769.552 312.083 743.729 288.299 743.729 246.847V69.1474C743.729 66.0896 745.428 64.3906 748.486 64.3906H784.502C787.56 64.3906 789.259 66.0897 789.259 69.1474V246.847C789.259 263.156 798.433 271.311 812.363 271.311H813.042C826.973 271.311 836.146 263.156 836.146 246.847V69.1474C836.146 66.0897 837.846 64.3907 840.903 64.3906H876.919C879.977 64.3906 881.676 66.0896 881.676 69.1474V246.847ZM1086.83 299.936C1088.53 302.654 1087.51 305.711 1083.78 305.711H1046.74C1044.36 305.711 1042.32 305.032 1040.96 302.653L1033.15 290.762C1020.58 303.673 1005.29 309.788 984.563 309.788C938.695 309.788 908.115 279.549 908.115 234.359C908.115 202.082 921.366 181.016 946.169 163.687C936.656 148.738 929.86 132.768 929.86 113.741C929.86 82.4826 952.285 57.0002 986.602 57C1021.6 57 1044.02 81.1239 1044.02 112.043C1044.02 139.564 1029.41 158.591 1003.59 176.259L1027.03 211.595L1033.49 187.811C1034.17 185.093 1035.87 183.734 1038.59 183.734H1071.54C1074.94 183.734 1076.64 186.112 1075.62 189.17L1069.51 211.255C1065.09 227.564 1060.67 241.495 1055.58 253.727L1086.83 299.936ZM970.633 198.004C960.1 207.178 954.324 217.371 954.324 231.981C954.324 252.707 966.896 264.939 984.563 265.278C995.436 265.278 1003.25 262.221 1009.37 255.426L970.633 198.004ZM1003.59 116.12C1003.59 106.267 996.795 98.792 986.602 98.792C976.409 98.7922 969.613 106.267 969.613 117.14C969.613 127.332 974.371 135.148 981.166 143.981C996.795 135.827 1003.59 126.313 1003.59 116.12ZM1228.44 98.4521C1228.44 100.83 1226.74 102.189 1224.02 101.85C1221.65 101.51 1217.91 101.51 1214.51 101.51C1164.56 101.51 1135 132.089 1135 183.395C1135 234.7 1164.56 265.278 1214.51 265.278C1217.91 265.278 1221.65 265.278 1224.02 264.938C1226.74 264.599 1228.44 265.959 1228.44 268.337V301.974C1228.44 304.692 1226.74 306.391 1223.68 306.73C1221.65 307.07 1217.91 307.07 1214.51 307.07C1138.74 307.07 1089.47 260.182 1089.47 183.395C1089.47 106.607 1138.74 59.7178 1214.51 59.7177C1218.59 59.7177 1222.32 60.0577 1224.7 60.3974C1227.08 60.7373 1228.44 62.776 1228.44 64.8144V98.4521ZM1381.31 300.954C1381.31 304.012 1379.61 305.711 1376.56 305.711H1340.54C1337.48 305.711 1335.78 304.012 1335.78 300.954V208.537H1288.9V300.954C1288.9 304.012 1287.2 305.711 1284.14 305.711H1248.12C1245.07 305.711 1243.37 304.012 1243.37 300.954V122.915C1243.37 82.8223 1269.19 57 1310.98 57H1313.7C1355.49 57 1381.31 82.8223 1381.31 122.915V300.954ZM1335.78 120.877C1335.78 106.946 1326.61 97.7724 1312.68 97.7724H1312C1298.07 97.7724 1288.9 106.946 1288.9 120.877V145.34C1288.9 160.29 1297.05 168.444 1312 168.444H1312.68C1327.63 168.444 1335.78 160.29 1335.78 145.34V120.877ZM1534.61 300.954C1534.61 304.012 1532.91 305.711 1529.85 305.711H1493.83C1490.78 305.711 1489.08 304.012 1489.08 300.954V172.861L1442.19 123.935V300.954C1442.19 304.012 1440.49 305.711 1437.43 305.711H1401.42C1398.36 305.711 1396.66 304.012 1396.66 300.954V65.834C1396.66 62.7761 1398.36 61.0771 1401.42 61.0771H1436.07C1440.15 61.0771 1443.55 62.4362 1446.27 65.4941L1489.08 112.383V65.834C1489.08 62.7761 1490.78 61.0772 1493.83 61.0771H1529.85C1532.91 61.0771 1534.61 62.7761 1534.61 65.834V300.954ZM1689.33 300.954C1689.33 304.012 1687.63 305.711 1684.58 305.711H1553.72C1550.66 305.711 1548.96 304.012 1548.96 300.954V65.834C1548.96 62.7761 1550.66 61.0771 1553.72 61.0771H1650.89C1653.95 61.0771 1655.65 62.7761 1655.65 65.834V98.792C1655.65 101.85 1653.95 103.549 1650.89 103.549H1594.49V136.846H1637.3C1640.36 136.846 1642.06 138.545 1642.06 141.603V174.561C1642.06 177.618 1640.36 179.317 1637.3 179.317H1594.49V263.24H1684.58C1687.63 263.24 1689.33 264.939 1689.33 267.997V300.954ZM1905.12 98.792C1905.12 101.85 1903.42 103.549 1900.36 103.549H1750.72V300.954C1750.72 304.012 1749.03 305.711 1745.97 305.711H1710.29C1707.23 305.711 1705.54 304.012 1705.54 300.954V103.549H1674.62C1671.56 103.549 1669.86 101.85 1669.86 98.792V65.834C1669.86 62.7761 1671.56 61.0771 1674.62 61.0771H1900.36C1903.42 61.0771 1905.12 62.7761 1905.12 65.834V98.792ZM1905.38 300.954C1905.38 304.012 1903.68 305.711 1900.62 305.711H1864.61C1861.55 305.711 1859.85 304.012 1859.85 300.954V256.104H1812.96V300.954C1812.96 304.012 1811.26 305.711 1808.2 305.711H1772.19C1769.13 305.711 1767.43 304.012 1767.43 300.954V186.792C1767.43 146.699 1793.25 120.877 1835.05 120.877H1837.76C1879.56 120.877 1905.38 146.699 1905.38 186.792V300.954ZM1859.85 184.753C1859.85 170.823 1850.67 161.649 1836.74 161.649H1836.06C1822.13 161.65 1812.96 170.823 1812.96 184.753V195.626C1812.96 210.576 1821.11 218.73 1836.06 218.73H1836.74C1851.69 218.73 1859.85 210.576 1859.85 195.626V184.753Z" fill="white"/>
</svg>
